<?xml version="1.0" encoding="utf-8"?>
<!-- Generator: Adobe Illustrator 25.4.1, SVG Export Plug-In . SVG Version: 6.00 Build 0)  -->
<svg version="1.1" id="Слой_1" xmlns="http://www.w3.org/2000/svg" xmlns:xlink="http://www.w3.org/1999/xlink" x="0px" y="0px"
	 viewBox="0 0 60.63 60.63" style="enable-background:new 0 0 60.63 60.63;" xml:space="preserve">
<style type="text/css">
	.st0{fill:#D1DD27;}
	.st1{fill:#666663;}
</style>
<path class="st0" d="M30.32,2c15.61,0,28.32,12.7,28.32,28.32s-12.7,28.32-28.32,28.32S2,45.93,2,30.32S14.7,2,30.32,2 M30.32,0
	C13.57,0,0,13.57,0,30.32s13.57,30.32,30.32,30.32s30.32-13.57,30.32-30.32S47.06,0,30.32,0L30.32,0z"/>
<g>
	<path class="st1" d="M30.19,47.24c-0.11,0-0.23-0.04-0.32-0.12c-8.05-6.78-12.26-15.16-12.5-24.91c-0.01-0.24,0.15-0.44,0.38-0.5
		c4.48-1.09,8.67-3.29,12.11-6.36c0.19-0.17,0.48-0.17,0.67,0c3.44,3.07,7.63,5.27,12.11,6.36c0.23,0.06,0.39,0.26,0.38,0.5
		c-0.25,9.75-4.45,18.13-12.5,24.91C30.42,47.2,30.3,47.24,30.19,47.24z M18.38,22.59c0.34,9.15,4.31,17.05,11.81,23.5
		c7.5-6.45,11.48-14.35,11.81-23.5c-4.35-1.12-8.41-3.26-11.81-6.2C26.79,19.33,22.72,21.46,18.38,22.59z"/>
	<path class="st1" d="M30.59,36.63c-0.15,0-0.29-0.07-0.39-0.19l-4.25-5.24c-0.17-0.21-0.14-0.53,0.07-0.7
		c0.22-0.17,0.53-0.14,0.7,0.07l3.78,4.66l5.26-9.58c0.13-0.24,0.44-0.33,0.68-0.2c0.24,0.13,0.33,0.44,0.2,0.68l-5.61,10.24
		c-0.08,0.15-0.23,0.24-0.39,0.26C30.62,36.63,30.6,36.63,30.59,36.63z"/>
</g>
</svg>
