<?xml version="1.0" encoding="utf-8"?>
<!-- Generator: Adobe Illustrator 25.4.1, SVG Export Plug-In . SVG Version: 6.00 Build 0)  -->
<svg version="1.1" id="Слой_1" xmlns="http://www.w3.org/2000/svg" xmlns:xlink="http://www.w3.org/1999/xlink" x="0px" y="0px"
	 viewBox="0 0 60.63 60.63" style="enable-background:new 0 0 60.63 60.63;" xml:space="preserve">
<style type="text/css">
	.st0{fill:#D1DD27;}
	.st1{fill:#666663;}
</style>
<g>
	<path class="st0" d="M30.32,2c15.61,0,28.32,12.7,28.32,28.32s-12.7,28.32-28.32,28.32S2,45.93,2,30.32S14.7,2,30.32,2 M30.32,0
		C13.57,0,0,13.57,0,30.32s13.57,30.32,30.32,30.32s30.32-13.57,30.32-30.32S47.06,0,30.32,0L30.32,0z"/>
	<g>
		<path class="st1" d="M18.94,40.32h-1.33c-2.32,0-4.2-1.88-4.2-4.19v-2.65c0-2.32,1.88-4.2,4.2-4.2h1.33c0.28,0,0.5,0.22,0.5,0.5
			v10.04C19.44,40.09,19.21,40.32,18.94,40.32z M17.61,30.28c-1.76,0-3.2,1.44-3.2,3.2v2.65c0,1.76,1.44,3.19,3.2,3.19h0.83v-9.04
			H17.61z"/>
		<path class="st1" d="M21.78,43.03h-0.67c-1.47,0-2.67-1.2-2.67-2.68V29.74c0-1.48,1.2-2.68,2.67-2.68h0.67
			c1.48,0,2.68,1.2,2.68,2.68v10.61C24.46,41.82,23.25,43.03,21.78,43.03z M21.11,28.06c-0.92,0-1.67,0.75-1.67,1.68v10.61
			c0,0.93,0.75,1.68,1.67,1.68h0.67c0.93,0,1.68-0.75,1.68-1.68V29.74c0-0.93-0.75-1.68-1.68-1.68H21.11z"/>
		<path class="st1" d="M41.9,40.32h-1.33c-0.28,0-0.5-0.22-0.5-0.5V29.78c0-0.28,0.22-0.5,0.5-0.5h1.33c2.32,0,4.2,1.88,4.2,4.2
			v2.65C46.1,38.44,44.21,40.32,41.9,40.32z M41.07,39.32h0.83c1.76,0,3.2-1.43,3.2-3.19v-2.65c0-1.76-1.44-3.2-3.2-3.2h-0.83V39.32
			z"/>
		<path class="st1" d="M38.4,43.03h-0.67c-1.48,0-2.68-1.2-2.68-2.68V29.74c0-1.48,1.2-2.68,2.68-2.68h0.67
			c1.47,0,2.67,1.2,2.67,2.68v10.61C41.07,41.83,39.87,43.03,38.4,43.03z M37.73,28.06c-0.93,0-1.68,0.75-1.68,1.68v10.61
			c0,0.93,0.75,1.68,1.68,1.68h0.67c0.92,0,1.67-0.75,1.67-1.68V29.74c0-0.93-0.75-1.68-1.67-1.68H37.73z"/>
		<path class="st1" d="M13.92,33.94c-0.26,0-0.48-0.21-0.5-0.47c-0.01-0.19-0.01-0.39-0.01-0.59c0-9.93,7.33-18.01,16.35-18.01
			c9.01,0,16.34,8.08,16.34,18.01c0,0.2,0,0.4-0.01,0.59c-0.02,0.28-0.26,0.48-0.53,0.47c-0.28-0.02-0.49-0.25-0.47-0.53
			c0.01-0.17,0.01-0.35,0.01-0.53c0-9.38-6.88-17.01-15.34-17.01c-8.46,0-15.35,7.63-15.35,17.01c0,0.18,0,0.36,0.01,0.53
			c0.01,0.28-0.2,0.51-0.47,0.53C13.94,33.94,13.93,33.94,13.92,33.94z"/>
		<path class="st1" d="M38.24,47.73h-5.78c-0.28,0-0.5-0.22-0.5-0.5s0.22-0.5,0.5-0.5h5.78c1.01,0,1.83-0.82,1.83-1.83v-4.55
			c0-0.28,0.22-0.5,0.5-0.5s0.5,0.22,0.5,0.5v4.55C41.07,46.46,39.8,47.73,38.24,47.73z"/>
		<path class="st1" d="M30.75,49.81h-1.14c-1.21,0-2.2-0.99-2.2-2.2v-0.53c0-0.47,0.15-0.92,0.43-1.29
			c0.39-0.56,1.06-0.91,1.77-0.91h1.14c1.22,0,2.21,0.99,2.21,2.2v0.53C32.96,48.82,31.97,49.81,30.75,49.81z M29.61,45.88
			c-0.38,0-0.74,0.19-0.96,0.5c-0.16,0.21-0.24,0.45-0.24,0.7v0.53c0,0.66,0.54,1.2,1.2,1.2h1.14c0.67,0,1.21-0.54,1.21-1.2v-0.53
			c0-0.66-0.54-1.2-1.21-1.2H29.61z"/>
	</g>
</g>
</svg>
