<?xml version="1.0" encoding="utf-8"?>
<!-- Generator: Adobe Illustrator 25.4.1, SVG Export Plug-In . SVG Version: 6.00 Build 0)  -->
<svg version="1.1" id="Слой_1" xmlns="http://www.w3.org/2000/svg" xmlns:xlink="http://www.w3.org/1999/xlink" x="0px" y="0px"
	 viewBox="0 0 60.63 60.63" style="enable-background:new 0 0 60.63 60.63;" xml:space="preserve">
<style type="text/css">
	.st0{fill:#D1DD27;}
	.st1{fill:#666663;}
</style>
<g>
	<path class="st0" d="M30.32,2c15.61,0,28.32,12.7,28.32,28.32s-12.7,28.32-28.32,28.32S2,45.93,2,30.32S14.7,2,30.32,2 M30.32,0
		C13.57,0,0,13.57,0,30.32s13.57,30.32,30.32,30.32s30.32-13.57,30.32-30.32S47.06,0,30.32,0L30.32,0z"/>
	<g>
		<path class="st1" d="M30.32,31.83c-1.31,0-2.37,1.07-2.37,2.37c0,1.14,0.8,2.09,1.87,2.32v1.8c0,0.28,0.22,0.5,0.5,0.5
			s0.5-0.22,0.5-0.5v-1.8c1.07-0.23,1.87-1.18,1.87-2.32C32.69,32.89,31.62,31.83,30.32,31.83z M30.32,35.58
			c-0.76,0-1.37-0.62-1.37-1.37s0.62-1.37,1.37-1.37s1.37,0.62,1.37,1.37S31.07,35.58,30.32,35.58z"/>
		<path class="st1" d="M39.92,26.32H35.6v-4.29c0-2.92-2.37-5.29-5.29-5.29s-5.29,2.37-5.29,5.29v4.29h-4.32
			c-0.81,0-1.46,0.7-1.46,1.56v14.89c0,0.86,0.66,1.56,1.46,1.56h19.22c0.81,0,1.46-0.7,1.46-1.56V27.88
			C41.38,27.02,40.73,26.32,39.92,26.32z M26.03,22.03c0-2.36,1.92-4.29,4.29-4.29c2.36,0,4.29,1.92,4.29,4.29v4.29h-8.57V22.03z
			 M40.38,42.78c0,0.31-0.21,0.56-0.46,0.56H20.71c-0.25,0-0.46-0.25-0.46-0.56V27.88c0-0.31,0.21-0.56,0.46-0.56h19.22
			c0.25,0,0.46,0.25,0.46,0.56V42.78z"/>
	</g>
</g>
</svg>
