<?xml version="1.0" encoding="utf-8"?>
<!-- Generator: Adobe Illustrator 25.4.1, SVG Export Plug-In . SVG Version: 6.00 Build 0)  -->
<svg version="1.1" id="Слой_1" xmlns="http://www.w3.org/2000/svg" xmlns:xlink="http://www.w3.org/1999/xlink" x="0px" y="0px"
	 viewBox="0 0 60.63 60.63" style="enable-background:new 0 0 60.63 60.63;" xml:space="preserve">
<style type="text/css">
	.st0{fill:#D1DD27;}
	.st1{fill:#666663;}
</style>
<g>
	<path class="st0" d="M30.32,2c15.61,0,28.32,12.7,28.32,28.32s-12.7,28.32-28.32,28.32S2,45.93,2,30.32S14.7,2,30.32,2 M30.32,0
		C13.57,0,0,13.57,0,30.32s13.57,30.32,30.32,30.32s30.32-13.57,30.32-30.32S47.06,0,30.32,0L30.32,0z"/>
	<path class="st1" d="M44.21,32.38c0-0.01,0-0.02,0-0.03l0-0.01c0,0,0,0,0,0l-1.67-4.18c-0.22-0.56-0.75-0.92-1.35-0.92h-4.6v-6.78
		c0-0.28-0.22-0.5-0.5-0.5H17.85c-0.82,0-1.46,0.79-1.46,1.79v18.12c0,1.01,0.64,1.79,1.46,1.79h1.95c0.24,1.62,1.64,2.88,3.33,2.88
		s3.08-1.25,3.33-2.88h7.73c0.24,1.62,1.64,2.88,3.33,2.88s3.08-1.25,3.33-2.88h1.95c0.8,0,1.46-0.65,1.46-1.46v-7.67
		C44.24,32.48,44.23,32.43,44.21,32.38z M41.17,28.25c0.19,0,0.36,0.11,0.43,0.29l1.4,3.51h-6.43v-3.79H41.17z M17.39,39.88V21.76
		c0-0.45,0.24-0.79,0.46-0.79h17.72v6.78v4.79v5.27v0.61c-0.74,0.52-1.25,1.33-1.39,2.26h-7.73c-0.24-1.62-1.64-2.88-3.33-2.88
		s-3.08,1.25-3.33,2.88h-1.95C17.63,40.67,17.39,40.33,17.39,39.88z M23.12,43.55c-1.31,0-2.38-1.07-2.38-2.38s1.07-2.38,2.38-2.38
		s2.38,1.07,2.38,2.38S24.43,43.55,23.12,43.55z M37.51,43.55c-1.31,0-2.38-1.07-2.38-2.38s1.07-2.38,2.38-2.38s2.38,1.07,2.38,2.38
		S38.82,43.55,37.51,43.55z M43.24,40.21c0,0.25-0.21,0.46-0.46,0.46h-1.95c-0.24-1.62-1.64-2.88-3.33-2.88
		c-0.33,0-0.64,0.06-0.94,0.15v-0.14v-4.77h6.67V40.21z"/>
</g>
</svg>
